<svg width="1em" height="1em" viewBox="0 0 16 16" fill="none" xmlns="http://www.w3.org/2000/svg">
<path d="M13.0403 8.065L14.0613 9.8334C14.7056 10.9494 14.3232 12.3765 13.2072 13.0208C12.8525 13.2256 12.4502 13.3334 12.0406 13.3334L10.6656 13.333L10.6658 15.0001L7.33245 12.6667L10.6658 10.3334L10.6656 11.9997L12.0406 12.0001C12.2161 12.0001 12.3886 11.9539 12.5406 11.8661C13.0188 11.5899 13.1828 10.9783 12.9066 10.5001L11.8856 8.73167L13.0403 8.065ZM4.86836 6.08938L5.22242 10.1428L3.77897 9.309L3.09166 10.5001C3.00389 10.6521 2.95768 10.8245 2.95768 11.0001C2.95768 11.5523 3.4054 12.0001 3.95768 12.0001L5.99964 12.0001V13.3334H3.95768C2.66902 13.3334 1.62435 12.2887 1.62435 11.0001C1.62435 10.5905 1.73216 10.1881 1.93696 9.8334L2.6243 8.64234L1.18097 7.80947L4.86836 6.08938ZM9.16578 1.97934C9.52052 2.18414 9.81505 2.47869 10.0198 2.8334L10.707 4.02368L12.1506 3.19066L11.7966 7.24407L8.10918 5.524L9.55232 4.69034L8.86518 3.50007C8.77738 3.34805 8.65118 3.22181 8.49912 3.13404C8.02085 2.85789 7.40925 3.02178 7.13312 3.50007L6.1121 5.26841L4.95742 4.60178L5.97841 2.8334C6.62274 1.71738 8.04978 1.33501 9.16578 1.97934Z" fill="currentColor"/>
</svg>
